<?xml version="1.0" encoding="UTF-8"?>
<svg id="Layer_2" data-name="Layer 2" xmlns="http://www.w3.org/2000/svg" viewBox="0 0 113 113">
  <defs>
    <style>
      .cls-1 {
        fill: #fff;
      }
    </style>
  </defs>
  <g id="Layer_1-2" data-name="Layer 1">
    <path class="cls-1" d="m61.54,67.45l-.21,1.78c-.21,1.67-.73,2.4-2.09,3.03l-4.78,2.29c-.74-3.95-1.35-7.19-1.35-7.89,0-.95,1.05-1.36,1.99-1.68,1.26-.45,3.04-1.52,3.98-4.53l.89,1.14c1.46,1.78,1.78,3.98,1.57,5.86Zm51.46-10.95c0,31.2-25.3,56.5-56.5,56.5S0,87.7,0,56.5,25.3,0,56.5,0s56.5,25.3,56.5,56.5Zm-20.4-21.06c0-4.39-1.35-5.23-6.38-9.83-1.36-1.26-1.67-2.09-1.88-3.77-.21-1.36-.31-1.77-1.36-1.77-3.87,0-8.47,6.69-8.47,13.28,0,2.61.73,5.86,3.76,8.16l2.72,2.09c3.25,2.51,2.93,4.71,2.93,5.33,0,1.36-.1,3.04-.62,5.03l-.84,3.34c-1.15,4.4-3.66,6.17-7.53,8.16l-6.07,3.14c-2.3,1.15-2.72,1.88-3.35,1.88-.21,0-.31-.1-.31-.31,0-.32.21-.52.21-.84l.84-4.08c.31-1.57.62-2.72.62-4.18,0-1.57-.31-2.72-1.25-3.98l-2.3-2.93c-2.83-3.55-4.08-5.23-4.08-7.42,0-.63.1-1.26.42-1.78.21-.31.41-.42.83-.42.63,0,.84.21,1.68,1.26.94,1.25,1.67,1.98,2.51,1.98,2.3,0,5.44-5.23,5.44-11.19,0-4.5-1.78-6.8-4.5-9.1l-2.51-2.09c-1.57-1.36-1.88-1.99-2.09-4.5-.11-1.25-.11-1.67-1.26-1.67-5.02,0-9.31,8.26-9.31,13.6,0,3.76,1.99,5.54,5.75,9.31.42.41.53.62.53.94s-.11.83-.53,1.57c-.35.73-.63,1.41-.84,2.07-1.03-.41-2.16-.57-3.3-.57h-21.65c-3.66,0-4.18-1.77-4.18-4.7,0-1.26-.11-1.88-1.36-1.88-3.35,0-6.7,4.7-6.7,12.86,0,8.68,3.87,13.18,9.1,13.18h18.41c2.93,0,3.25,1.88,3.25,4.18,0,3.87-.95,25.94-.95,28.77,0,3.87,1.15,4.5,3.04,4.5s4.15-3.79,5.25-7.6l22.53-12.74c3.14-1.78,5.86-4.71,6.48-9.94l1.15-9.93c1.47-12.87,1.99-12.97,4.29-18.73,1.15-2.93,1.88-4.91,1.88-8.68Z"/>
  </g>
</svg>